<?xml version="1.0" encoding="utf-8"?>
<!-- Generator: Adobe Illustrator 22.0.1, SVG Export Plug-In . SVG Version: 6.00 Build 0)  -->
<svg version="1.1" id="Layer_1" xmlns="http://www.w3.org/2000/svg" xmlns:xlink="http://www.w3.org/1999/xlink" x="0px" y="0px"
	 viewBox="0 0 75.2 37.9" style="enable-background:new 0 0 75.2 37.9;" xml:space="preserve">
<style type="text/css">
	.st0{fill:#6E3EFF;}
</style>
<title>Logo-1</title>
<path d="M35.3,6.2h0.4c-0.1-1.3-0.1-2.6,0-3.8C35.8,1.6,36,0.8,36.1,0c-0.3,0-0.6,0-0.9,0H0v1.3c1.3,0,2,0.4,2,1.3v32.8
	c0,0.9-0.7,1.3-2,1.3v1.3h12.9v-1.3c-0.6,0-1.1-0.1-1.6-0.3c-0.4-0.2-0.7-0.6-0.6-1v-14h14.9c0.6,0,1.1,0.1,1.7,0.2
	c-0.1-0.7-0.2-1.4-0.1-2.1c0-0.6,0-1.1,0.1-1.7v-0.5c-0.2-0.4-0.3-0.8-0.4-1.2c-0.1-0.3-0.1-0.6,0-0.9c-0.4,0-0.8,0.1-1.2,0.1h-15
	V6.2H35.3z"/>
<path d="M73.8,10.6c-1.7-4.5-5.3-7.9-9.9-9.4C61.5,0.4,59,0,56.5,0H32.6v1.3c1.1,0,1.7,0.4,1.7,1.3v3.7c1.2-0.2,2.4-0.3,3.6-0.1H41
	l0,0c0.4,0,0.9,0,1.3,0l0,0l0,0l0,0l0,0l0,0h11.2c2,0,4,0.2,5.9,0.6c1.5,0.3,3,1,4.2,2c1.2,1.1,2,2.4,2.5,3.9c0.6,2,0.9,4.1,0.8,6.2
	c0.1,2.1-0.2,4.2-0.8,6.2c-0.5,1.5-1.3,2.9-2.5,3.9c-1.2,1-2.6,1.7-4.2,2c-1.9,0.4-3.9,0.6-5.9,0.6h-3.9c0.1,1.9,0.4,3.7,0.8,5.5
	c0.5,0.1,1,0.3,1.3,0.7h4.6c2.5,0,5-0.4,7.4-1.2c4.6-1.5,8.2-4.9,9.9-9.4c1-2.7,1.5-5.5,1.4-8.4C75.3,16.1,74.8,13.2,73.8,10.6z"/>
<path class="st0" d="M12.9,36.6c0.6-0.1,1.1-0.4,1.5-0.9c0.4-0.6,0.7-1.2,1-1.8l13.3-28c0.3-0.6,0.6-1.2,0.9-1.7
	C29.9,3.7,30,3.2,30,2.7c0-0.4-0.2-0.8-0.5-1c-0.3-0.2-0.7-0.3-1.1-0.4V0h12.2v1.3c-0.3,0.1-0.7,0.2-1,0.4c-0.4,0.2-0.6,0.6-0.5,1
	c0,0.4,0.1,0.8,0.2,1.2c0.2,0.4,0.4,0.9,0.8,1.5l15,29.4c0.2,0.5,0.6,0.9,1,1.2c0.5,0.3,0.9,0.5,1.4,0.7v1.3H44.8v-1.3
	c0.3,0,0.5-0.1,0.7-0.2c0.3-0.1,0.4-0.4,0.4-0.6c-0.1-0.7-0.2-1.3-0.6-1.9l-2.8-5.3H25.1l-2.6,5.1c-0.4,0.7-0.6,1.4-0.7,2.2
	c0,0.5,0.5,0.8,1.4,0.8v1.3H12.9V36.6z M40.1,23.2l-6-13.4l-6.8,13.4H40.1z"/>
</svg>
